<svg id="visual" viewBox="0 0 1920 1080" width="1920" height="1080" xmlns="http://www.w3.org/2000/svg" xmlns:xlink="http://www.w3.org/1999/xlink" version="1.1"><g stroke-width="1" stroke-linejoin="bevel"><path d="M960 540L960 450L864 450Z" fill="#dbdbdb" stroke="#dbdbdb"></path><path d="M864 450L864 540L960 540Z" fill="#bdbdbd" stroke="#bdbdbd"></path><path d="M960 450L864 360L864 450Z" fill="#d7d7d7" stroke="#d7d7d7"></path><path d="M960 450L960 360L864 360Z" fill="#bababa" stroke="#bababa"></path><path d="M864 540L864 630L960 540Z" fill="#dbdbdb" stroke="#dbdbdb"></path><path d="M864 630L960 630L960 540Z" fill="#d0d0d0" stroke="#d0d0d0"></path><path d="M768 450L768 540L864 450Z" fill="#d0d0d0" stroke="#d0d0d0"></path><path d="M864 450L768 540L864 540Z" fill="#c8c8c8" stroke="#c8c8c8"></path><path d="M864 540L768 540L864 630Z" fill="#cccccc" stroke="#cccccc"></path><path d="M1056 540L1056 450L960 540Z" fill="#dbdbdb" stroke="#dbdbdb"></path><path d="M960 540L1056 450L960 450Z" fill="#b6b6b6" stroke="#b6b6b6"></path><path d="M960 450L1056 450L960 360Z" fill="#cccccc" stroke="#cccccc"></path><path d="M864 360L768 450L864 450Z" fill="#c4c4c4" stroke="#c4c4c4"></path><path d="M960 630L1056 540L960 540Z" fill="#d0d0d0" stroke="#d0d0d0"></path><path d="M1056 450L1056 360L960 360Z" fill="#c4c4c4" stroke="#c4c4c4"></path><path d="M864 360L768 360L768 450Z" fill="#d0d0d0" stroke="#d0d0d0"></path><path d="M768 540L768 630L864 630Z" fill="#d0d0d0" stroke="#d0d0d0"></path><path d="M960 630L1056 630L1056 540Z" fill="#d3d3d3" stroke="#d3d3d3"></path><path d="M768 630L864 720L864 630Z" fill="#bababa" stroke="#bababa"></path><path d="M864 630L864 720L960 630Z" fill="#bdbdbd" stroke="#bdbdbd"></path><path d="M960 630L960 720L1056 630Z" fill="#c4c4c4" stroke="#c4c4c4"></path><path d="M864 720L960 720L960 630Z" fill="#c1c1c1" stroke="#c1c1c1"></path><path d="M1056 360L960 270L960 360Z" fill="#c4c4c4" stroke="#c4c4c4"></path><path d="M960 360L960 270L864 360Z" fill="#dbdbdb" stroke="#dbdbdb"></path><path d="M864 360L864 270L768 360Z" fill="#bababa" stroke="#bababa"></path><path d="M960 270L864 270L864 360Z" fill="#c4c4c4" stroke="#c4c4c4"></path><path d="M768 360L672 450L768 450Z" fill="#bdbdbd" stroke="#bdbdbd"></path><path d="M768 450L672 450L768 540Z" fill="#c4c4c4" stroke="#c4c4c4"></path><path d="M768 540L672 540L768 630Z" fill="#cccccc" stroke="#cccccc"></path><path d="M1056 540L1152 450L1056 450Z" fill="#d7d7d7" stroke="#d7d7d7"></path><path d="M1056 450L1152 450L1056 360Z" fill="#bababa" stroke="#bababa"></path><path d="M1152 540L1152 450L1056 540Z" fill="#bdbdbd" stroke="#bdbdbd"></path><path d="M672 450L672 540L768 540Z" fill="#d7d7d7" stroke="#d7d7d7"></path><path d="M1056 630L1152 540L1056 540Z" fill="#d0d0d0" stroke="#d0d0d0"></path><path d="M672 630L768 720L768 630Z" fill="#bababa" stroke="#bababa"></path><path d="M768 630L768 720L864 720Z" fill="#d3d3d3" stroke="#d3d3d3"></path><path d="M864 270L768 270L768 360Z" fill="#c4c4c4" stroke="#c4c4c4"></path><path d="M768 360L672 360L672 450Z" fill="#c4c4c4" stroke="#c4c4c4"></path><path d="M1152 360L1056 270L1056 360Z" fill="#c4c4c4" stroke="#c4c4c4"></path><path d="M1056 360L1056 270L960 270Z" fill="#dbdbdb" stroke="#dbdbdb"></path><path d="M960 720L1056 720L1056 630Z" fill="#c1c1c1" stroke="#c1c1c1"></path><path d="M1056 630L1152 630L1152 540Z" fill="#bababa" stroke="#bababa"></path><path d="M1152 450L1152 360L1056 360Z" fill="#d3d3d3" stroke="#d3d3d3"></path><path d="M672 540L672 630L768 630Z" fill="#c4c4c4" stroke="#c4c4c4"></path><path d="M1056 720L1152 630L1056 630Z" fill="#dbdbdb" stroke="#dbdbdb"></path><path d="M768 270L672 360L768 360Z" fill="#cccccc" stroke="#cccccc"></path><path d="M768 720L864 810L864 720Z" fill="#bababa" stroke="#bababa"></path><path d="M864 720L864 810L960 720Z" fill="#dbdbdb" stroke="#dbdbdb"></path><path d="M960 720L960 810L1056 720Z" fill="#c1c1c1" stroke="#c1c1c1"></path><path d="M864 810L960 810L960 720Z" fill="#dbdbdb" stroke="#dbdbdb"></path><path d="M1056 270L960 180L960 270Z" fill="#b6b6b6" stroke="#b6b6b6"></path><path d="M960 270L960 180L864 270Z" fill="#d3d3d3" stroke="#d3d3d3"></path><path d="M864 270L864 180L768 270Z" fill="#c4c4c4" stroke="#c4c4c4"></path><path d="M960 180L864 180L864 270Z" fill="#dbdbdb" stroke="#dbdbdb"></path><path d="M1152 360L1152 270L1056 270Z" fill="#bababa" stroke="#bababa"></path><path d="M1056 270L1056 180L960 180Z" fill="#bababa" stroke="#bababa"></path><path d="M672 630L672 720L768 720Z" fill="#bababa" stroke="#bababa"></path><path d="M768 720L768 810L864 810Z" fill="#bdbdbd" stroke="#bdbdbd"></path><path d="M1056 720L1152 720L1152 630Z" fill="#dbdbdb" stroke="#dbdbdb"></path><path d="M1056 810L1152 720L1056 720Z" fill="#c1c1c1" stroke="#c1c1c1"></path><path d="M768 180L672 270L768 270Z" fill="#c1c1c1" stroke="#c1c1c1"></path><path d="M768 270L672 270L672 360Z" fill="#d7d7d7" stroke="#d7d7d7"></path><path d="M1152 540L1248 450L1152 450Z" fill="#d3d3d3" stroke="#d3d3d3"></path><path d="M1152 450L1248 450L1152 360Z" fill="#c1c1c1" stroke="#c1c1c1"></path><path d="M1152 360L1248 360L1152 270Z" fill="#bdbdbd" stroke="#bdbdbd"></path><path d="M1248 540L1248 450L1152 540Z" fill="#c1c1c1" stroke="#c1c1c1"></path><path d="M1248 540L1152 540L1152 630Z" fill="#c1c1c1" stroke="#c1c1c1"></path><path d="M672 450L576 540L672 540Z" fill="#cccccc" stroke="#cccccc"></path><path d="M672 540L576 540L672 630Z" fill="#d7d7d7" stroke="#d7d7d7"></path><path d="M672 630L576 630L672 720Z" fill="#bababa" stroke="#bababa"></path><path d="M576 450L576 540L672 450Z" fill="#c1c1c1" stroke="#c1c1c1"></path><path d="M576 450L672 450L672 360Z" fill="#bababa" stroke="#bababa"></path><path d="M1248 630L1248 540L1152 630Z" fill="#d0d0d0" stroke="#d0d0d0"></path><path d="M576 360L576 450L672 360Z" fill="#c1c1c1" stroke="#c1c1c1"></path><path d="M960 810L1056 810L1056 720Z" fill="#bdbdbd" stroke="#bdbdbd"></path><path d="M864 180L768 180L768 270Z" fill="#bdbdbd" stroke="#bdbdbd"></path><path d="M1152 270L1056 180L1056 270Z" fill="#d7d7d7" stroke="#d7d7d7"></path><path d="M672 720L768 810L768 720Z" fill="#bdbdbd" stroke="#bdbdbd"></path><path d="M1152 720L1248 630L1152 630Z" fill="#d7d7d7" stroke="#d7d7d7"></path><path d="M672 270L576 360L672 360Z" fill="#c4c4c4" stroke="#c4c4c4"></path><path d="M576 540L576 630L672 630Z" fill="#c1c1c1" stroke="#c1c1c1"></path><path d="M1248 450L1248 360L1152 360Z" fill="#bababa" stroke="#bababa"></path><path d="M1056 810L1152 810L1152 720Z" fill="#c4c4c4" stroke="#c4c4c4"></path><path d="M1152 720L1248 720L1248 630Z" fill="#d0d0d0" stroke="#d0d0d0"></path><path d="M768 180L672 180L672 270Z" fill="#d7d7d7" stroke="#d7d7d7"></path><path d="M672 270L576 270L576 360Z" fill="#d3d3d3" stroke="#d3d3d3"></path><path d="M1248 270L1152 180L1152 270Z" fill="#d7d7d7" stroke="#d7d7d7"></path><path d="M1152 270L1152 180L1056 180Z" fill="#c1c1c1" stroke="#c1c1c1"></path><path d="M576 720L672 810L672 720Z" fill="#cccccc" stroke="#cccccc"></path><path d="M672 720L672 810L768 810Z" fill="#c1c1c1" stroke="#c1c1c1"></path><path d="M1152 810L1248 720L1152 720Z" fill="#bababa" stroke="#bababa"></path><path d="M672 180L576 270L672 270Z" fill="#c1c1c1" stroke="#c1c1c1"></path><path d="M1248 360L1248 270L1152 270Z" fill="#c4c4c4" stroke="#c4c4c4"></path><path d="M576 630L576 720L672 720Z" fill="#d7d7d7" stroke="#d7d7d7"></path><path d="M864 810L960 900L960 810Z" fill="#bababa" stroke="#bababa"></path><path d="M960 810L960 900L1056 810Z" fill="#dbdbdb" stroke="#dbdbdb"></path><path d="M1056 810L1056 900L1152 810Z" fill="#d3d3d3" stroke="#d3d3d3"></path><path d="M864 900L960 900L864 810Z" fill="#dbdbdb" stroke="#dbdbdb"></path><path d="M864 900L864 810L768 810Z" fill="#bababa" stroke="#bababa"></path><path d="M1056 180L960 90L960 180Z" fill="#d3d3d3" stroke="#d3d3d3"></path><path d="M960 180L960 90L864 180Z" fill="#cccccc" stroke="#cccccc"></path><path d="M864 180L864 90L768 180Z" fill="#cccccc" stroke="#cccccc"></path><path d="M768 180L768 90L672 180Z" fill="#bdbdbd" stroke="#bdbdbd"></path><path d="M1056 90L960 90L1056 180Z" fill="#b6b6b6" stroke="#b6b6b6"></path><path d="M960 90L864 90L864 180Z" fill="#cccccc" stroke="#cccccc"></path><path d="M768 900L864 900L768 810Z" fill="#d7d7d7" stroke="#d7d7d7"></path><path d="M960 900L1056 900L1056 810Z" fill="#c1c1c1" stroke="#c1c1c1"></path><path d="M864 90L768 90L768 180Z" fill="#d7d7d7" stroke="#d7d7d7"></path><path d="M672 810L768 900L768 810Z" fill="#d3d3d3" stroke="#d3d3d3"></path><path d="M1152 180L1056 90L1056 180Z" fill="#cccccc" stroke="#cccccc"></path><path d="M576 450L480 540L576 540Z" fill="#d0d0d0" stroke="#d0d0d0"></path><path d="M576 540L480 540L576 630Z" fill="#b6b6b6" stroke="#b6b6b6"></path><path d="M576 630L480 630L576 720Z" fill="#bdbdbd" stroke="#bdbdbd"></path><path d="M480 450L480 540L576 450Z" fill="#cccccc" stroke="#cccccc"></path><path d="M480 450L576 450L576 360Z" fill="#c4c4c4" stroke="#c4c4c4"></path><path d="M480 360L480 450L576 360Z" fill="#c1c1c1" stroke="#c1c1c1"></path><path d="M1344 540L1248 540L1248 630Z" fill="#b6b6b6" stroke="#b6b6b6"></path><path d="M1344 540L1344 450L1248 540Z" fill="#c1c1c1" stroke="#c1c1c1"></path><path d="M1248 540L1344 450L1248 450Z" fill="#c1c1c1" stroke="#c1c1c1"></path><path d="M1248 450L1344 450L1248 360Z" fill="#d0d0d0" stroke="#d0d0d0"></path><path d="M1248 360L1344 360L1248 270Z" fill="#dbdbdb" stroke="#dbdbdb"></path><path d="M1344 630L1344 540L1248 630Z" fill="#bababa" stroke="#bababa"></path><path d="M1248 720L1344 630L1248 630Z" fill="#bababa" stroke="#bababa"></path><path d="M1344 450L1344 360L1248 360Z" fill="#c4c4c4" stroke="#c4c4c4"></path><path d="M480 540L480 630L576 630Z" fill="#d3d3d3" stroke="#d3d3d3"></path><path d="M576 270L480 360L576 360Z" fill="#cccccc" stroke="#cccccc"></path><path d="M576 720L576 810L672 810Z" fill="#d0d0d0" stroke="#d0d0d0"></path><path d="M672 810L672 900L768 900Z" fill="#d3d3d3" stroke="#d3d3d3"></path><path d="M480 720L576 810L576 720Z" fill="#c4c4c4" stroke="#c4c4c4"></path><path d="M1248 270L1248 180L1152 180Z" fill="#d3d3d3" stroke="#d3d3d3"></path><path d="M1152 180L1152 90L1056 90Z" fill="#bdbdbd" stroke="#bdbdbd"></path><path d="M1344 270L1248 180L1248 270Z" fill="#c1c1c1" stroke="#c1c1c1"></path><path d="M672 90L576 180L672 180Z" fill="#bababa" stroke="#bababa"></path><path d="M672 180L576 180L576 270Z" fill="#dbdbdb" stroke="#dbdbdb"></path><path d="M576 270L480 270L480 360Z" fill="#c1c1c1" stroke="#c1c1c1"></path><path d="M1152 810L1248 810L1248 720Z" fill="#b6b6b6" stroke="#b6b6b6"></path><path d="M1248 720L1344 720L1344 630Z" fill="#bdbdbd" stroke="#bdbdbd"></path><path d="M1152 900L1248 810L1152 810Z" fill="#d3d3d3" stroke="#d3d3d3"></path><path d="M768 90L672 90L672 180Z" fill="#cccccc" stroke="#cccccc"></path><path d="M1056 900L1152 900L1152 810Z" fill="#dbdbdb" stroke="#dbdbdb"></path><path d="M1248 180L1152 90L1152 180Z" fill="#dbdbdb" stroke="#dbdbdb"></path><path d="M576 810L672 900L672 810Z" fill="#dbdbdb" stroke="#dbdbdb"></path><path d="M1248 810L1344 720L1248 720Z" fill="#d3d3d3" stroke="#d3d3d3"></path><path d="M480 630L480 720L576 720Z" fill="#c4c4c4" stroke="#c4c4c4"></path><path d="M576 180L480 270L576 270Z" fill="#d7d7d7" stroke="#d7d7d7"></path><path d="M1344 360L1344 270L1248 270Z" fill="#c8c8c8" stroke="#c8c8c8"></path><path d="M864 90L864 0L768 90Z" fill="#c4c4c4" stroke="#c4c4c4"></path><path d="M768 90L768 0L672 90Z" fill="#d0d0d0" stroke="#d0d0d0"></path><path d="M960 90L864 0L864 90Z" fill="#bdbdbd" stroke="#bdbdbd"></path><path d="M960 0L864 0L960 90Z" fill="#bababa" stroke="#bababa"></path><path d="M960 0L960 90L1056 90Z" fill="#c8c8c8" stroke="#c8c8c8"></path><path d="M768 990L864 990L768 900Z" fill="#d3d3d3" stroke="#d3d3d3"></path><path d="M768 900L864 990L864 900Z" fill="#cccccc" stroke="#cccccc"></path><path d="M864 900L864 990L960 900Z" fill="#d0d0d0" stroke="#d0d0d0"></path><path d="M960 900L960 990L1056 900Z" fill="#d0d0d0" stroke="#d0d0d0"></path><path d="M1056 900L1056 990L1152 900Z" fill="#bababa" stroke="#bababa"></path><path d="M864 990L960 990L960 900Z" fill="#bdbdbd" stroke="#bdbdbd"></path><path d="M1056 0L960 0L1056 90Z" fill="#d0d0d0" stroke="#d0d0d0"></path><path d="M1152 90L1056 0L1056 90Z" fill="#c4c4c4" stroke="#c4c4c4"></path><path d="M864 0L768 0L768 90Z" fill="#c8c8c8" stroke="#c8c8c8"></path><path d="M672 900L768 990L768 900Z" fill="#dbdbdb" stroke="#dbdbdb"></path><path d="M960 990L1056 990L1056 900Z" fill="#c1c1c1" stroke="#c1c1c1"></path><path d="M576 810L576 900L672 900Z" fill="#b6b6b6" stroke="#b6b6b6"></path><path d="M672 900L672 990L768 990Z" fill="#dbdbdb" stroke="#dbdbdb"></path><path d="M480 810L576 900L576 810Z" fill="#dbdbdb" stroke="#dbdbdb"></path><path d="M672 90L576 90L576 180Z" fill="#d0d0d0" stroke="#d0d0d0"></path><path d="M576 180L480 180L480 270Z" fill="#d7d7d7" stroke="#d7d7d7"></path><path d="M672 0L576 90L672 90Z" fill="#dbdbdb" stroke="#dbdbdb"></path><path d="M1344 180L1248 90L1248 180Z" fill="#c8c8c8" stroke="#c8c8c8"></path><path d="M1248 180L1248 90L1152 90Z" fill="#d3d3d3" stroke="#d3d3d3"></path><path d="M1152 90L1152 0L1056 0Z" fill="#bababa" stroke="#bababa"></path><path d="M1152 900L1248 900L1248 810Z" fill="#c4c4c4" stroke="#c4c4c4"></path><path d="M1248 810L1344 810L1344 720Z" fill="#b6b6b6" stroke="#b6b6b6"></path><path d="M1152 990L1248 900L1152 900Z" fill="#bababa" stroke="#bababa"></path><path d="M1344 540L1440 540L1344 450Z" fill="#d3d3d3" stroke="#d3d3d3"></path><path d="M1344 450L1440 450L1344 360Z" fill="#d7d7d7" stroke="#d7d7d7"></path><path d="M1344 360L1440 360L1344 270Z" fill="#d0d0d0" stroke="#d0d0d0"></path><path d="M1344 630L1440 540L1344 540Z" fill="#d3d3d3" stroke="#d3d3d3"></path><path d="M1440 630L1440 540L1344 630Z" fill="#d3d3d3" stroke="#d3d3d3"></path><path d="M480 450L384 540L480 540Z" fill="#d7d7d7" stroke="#d7d7d7"></path><path d="M480 540L384 540L480 630Z" fill="#d0d0d0" stroke="#d0d0d0"></path><path d="M480 630L384 630L480 720Z" fill="#d0d0d0" stroke="#d0d0d0"></path><path d="M384 450L384 540L480 450Z" fill="#c4c4c4" stroke="#c4c4c4"></path><path d="M384 450L480 450L480 360Z" fill="#c8c8c8" stroke="#c8c8c8"></path><path d="M1440 540L1440 450L1344 450Z" fill="#d0d0d0" stroke="#d0d0d0"></path><path d="M384 360L384 450L480 360Z" fill="#c1c1c1" stroke="#c1c1c1"></path><path d="M1248 900L1344 810L1248 810Z" fill="#c8c8c8" stroke="#c8c8c8"></path><path d="M1344 720L1440 630L1344 630Z" fill="#b6b6b6" stroke="#b6b6b6"></path><path d="M576 90L480 180L576 180Z" fill="#c1c1c1" stroke="#c1c1c1"></path><path d="M480 270L384 360L480 360Z" fill="#bdbdbd" stroke="#bdbdbd"></path><path d="M1344 270L1344 180L1248 180Z" fill="#dbdbdb" stroke="#dbdbdb"></path><path d="M1440 270L1344 180L1344 270Z" fill="#d3d3d3" stroke="#d3d3d3"></path><path d="M384 720L480 810L480 720Z" fill="#d7d7d7" stroke="#d7d7d7"></path><path d="M480 720L480 810L576 810Z" fill="#d0d0d0" stroke="#d0d0d0"></path><path d="M1440 720L1440 630L1344 720Z" fill="#d7d7d7" stroke="#d7d7d7"></path><path d="M384 270L384 360L480 270Z" fill="#cccccc" stroke="#cccccc"></path><path d="M1440 450L1440 360L1344 360Z" fill="#d0d0d0" stroke="#d0d0d0"></path><path d="M384 540L384 630L480 630Z" fill="#bdbdbd" stroke="#bdbdbd"></path><path d="M1248 90L1152 0L1152 90Z" fill="#b6b6b6" stroke="#b6b6b6"></path><path d="M1056 990L1152 990L1152 900Z" fill="#cccccc" stroke="#cccccc"></path><path d="M576 900L672 990L672 900Z" fill="#c1c1c1" stroke="#c1c1c1"></path><path d="M768 0L672 0L672 90Z" fill="#d3d3d3" stroke="#d3d3d3"></path><path d="M384 630L384 720L480 720Z" fill="#c4c4c4" stroke="#c4c4c4"></path><path d="M1440 360L1440 270L1344 270Z" fill="#d7d7d7" stroke="#d7d7d7"></path><path d="M480 180L384 270L480 270Z" fill="#b6b6b6" stroke="#b6b6b6"></path><path d="M1344 810L1440 720L1344 720Z" fill="#d7d7d7" stroke="#d7d7d7"></path><path d="M864 990L960 1080L960 990Z" fill="#bababa" stroke="#bababa"></path><path d="M960 990L960 1080L1056 990Z" fill="#bababa" stroke="#bababa"></path><path d="M1056 990L1056 1080L1152 990Z" fill="#c1c1c1" stroke="#c1c1c1"></path><path d="M864 1080L960 1080L864 990Z" fill="#d0d0d0" stroke="#d0d0d0"></path><path d="M864 1080L864 990L768 990Z" fill="#d3d3d3" stroke="#d3d3d3"></path><path d="M768 1080L864 1080L768 990Z" fill="#c8c8c8" stroke="#c8c8c8"></path><path d="M1344 180L1344 90L1248 90Z" fill="#c4c4c4" stroke="#c4c4c4"></path><path d="M1248 90L1248 0L1152 0Z" fill="#d0d0d0" stroke="#d0d0d0"></path><path d="M1440 180L1344 90L1344 180Z" fill="#b6b6b6" stroke="#b6b6b6"></path><path d="M576 900L576 990L672 990Z" fill="#d7d7d7" stroke="#d7d7d7"></path><path d="M480 810L480 900L576 900Z" fill="#bdbdbd" stroke="#bdbdbd"></path><path d="M384 810L480 900L480 810Z" fill="#d7d7d7" stroke="#d7d7d7"></path><path d="M1248 900L1344 900L1344 810Z" fill="#c1c1c1" stroke="#c1c1c1"></path><path d="M1344 810L1440 810L1440 720Z" fill="#d0d0d0" stroke="#d0d0d0"></path><path d="M1248 990L1344 900L1248 900Z" fill="#c8c8c8" stroke="#c8c8c8"></path><path d="M576 0L480 90L576 90Z" fill="#d7d7d7" stroke="#d7d7d7"></path><path d="M576 90L480 90L480 180Z" fill="#b6b6b6" stroke="#b6b6b6"></path><path d="M480 180L384 180L384 270Z" fill="#bdbdbd" stroke="#bdbdbd"></path><path d="M1152 1080L1248 990L1152 990Z" fill="#c4c4c4" stroke="#c4c4c4"></path><path d="M1152 990L1248 990L1248 900Z" fill="#d3d3d3" stroke="#d3d3d3"></path><path d="M672 0L576 0L576 90Z" fill="#cccccc" stroke="#cccccc"></path><path d="M1344 90L1248 0L1248 90Z" fill="#d3d3d3" stroke="#d3d3d3"></path><path d="M480 900L576 990L576 900Z" fill="#d7d7d7" stroke="#d7d7d7"></path><path d="M672 990L768 1080L768 990Z" fill="#c4c4c4" stroke="#c4c4c4"></path><path d="M672 1080L768 1080L672 990Z" fill="#c8c8c8" stroke="#c8c8c8"></path><path d="M960 1080L1056 1080L1056 990Z" fill="#d3d3d3" stroke="#d3d3d3"></path><path d="M1344 900L1440 810L1344 810Z" fill="#bdbdbd" stroke="#bdbdbd"></path><path d="M480 90L384 180L480 180Z" fill="#c4c4c4" stroke="#c4c4c4"></path><path d="M1440 270L1440 180L1344 180Z" fill="#d3d3d3" stroke="#d3d3d3"></path><path d="M384 720L384 810L480 810Z" fill="#c4c4c4" stroke="#c4c4c4"></path><path d="M1440 540L1536 540L1440 450Z" fill="#c8c8c8" stroke="#c8c8c8"></path><path d="M1440 450L1536 450L1440 360Z" fill="#c1c1c1" stroke="#c1c1c1"></path><path d="M1440 360L1536 360L1440 270Z" fill="#d3d3d3" stroke="#d3d3d3"></path><path d="M1440 270L1536 270L1440 180Z" fill="#d7d7d7" stroke="#d7d7d7"></path><path d="M1440 630L1536 540L1440 540Z" fill="#c8c8c8" stroke="#c8c8c8"></path><path d="M1536 630L1536 540L1440 630Z" fill="#c8c8c8" stroke="#c8c8c8"></path><path d="M1536 630L1440 630L1440 720Z" fill="#c8c8c8" stroke="#c8c8c8"></path><path d="M384 540L288 540L384 630Z" fill="#d3d3d3" stroke="#d3d3d3"></path><path d="M384 630L288 630L384 720Z" fill="#dbdbdb" stroke="#dbdbdb"></path><path d="M384 720L288 720L384 810Z" fill="#c4c4c4" stroke="#c4c4c4"></path><path d="M384 450L288 540L384 540Z" fill="#bababa" stroke="#bababa"></path><path d="M288 450L288 540L384 450Z" fill="#c8c8c8" stroke="#c8c8c8"></path><path d="M288 450L384 450L384 360Z" fill="#c4c4c4" stroke="#c4c4c4"></path><path d="M288 450L384 360L288 360Z" fill="#bdbdbd" stroke="#bdbdbd"></path><path d="M288 360L384 360L384 270Z" fill="#b6b6b6" stroke="#b6b6b6"></path><path d="M1536 540L1536 450L1440 450Z" fill="#c4c4c4" stroke="#c4c4c4"></path><path d="M576 990L672 1080L672 990Z" fill="#bababa" stroke="#bababa"></path><path d="M1056 1080L1152 1080L1152 990Z" fill="#bdbdbd" stroke="#bdbdbd"></path><path d="M288 540L288 630L384 630Z" fill="#bababa" stroke="#bababa"></path><path d="M288 270L288 360L384 270Z" fill="#bababa" stroke="#bababa"></path><path d="M1536 450L1536 360L1440 360Z" fill="#c4c4c4" stroke="#c4c4c4"></path><path d="M1536 720L1536 630L1440 720Z" fill="#c4c4c4" stroke="#c4c4c4"></path><path d="M576 0L480 0L480 90Z" fill="#bababa" stroke="#bababa"></path><path d="M480 90L384 90L384 180Z" fill="#c4c4c4" stroke="#c4c4c4"></path><path d="M1344 900L1440 900L1440 810Z" fill="#bababa" stroke="#bababa"></path><path d="M1248 990L1344 990L1344 900Z" fill="#c8c8c8" stroke="#c8c8c8"></path><path d="M1248 1080L1344 990L1248 990Z" fill="#bdbdbd" stroke="#bdbdbd"></path><path d="M480 900L480 990L576 990Z" fill="#bababa" stroke="#bababa"></path><path d="M576 990L576 1080L672 1080Z" fill="#d3d3d3" stroke="#d3d3d3"></path><path d="M384 900L480 990L480 900Z" fill="#dbdbdb" stroke="#dbdbdb"></path><path d="M1440 90L1344 0L1344 90Z" fill="#d0d0d0" stroke="#d0d0d0"></path><path d="M1344 90L1344 0L1248 0Z" fill="#bdbdbd" stroke="#bdbdbd"></path><path d="M1440 810L1536 720L1440 720Z" fill="#c1c1c1" stroke="#c1c1c1"></path><path d="M1536 810L1536 720L1440 810Z" fill="#c8c8c8" stroke="#c8c8c8"></path><path d="M288 180L288 270L384 180Z" fill="#d0d0d0" stroke="#d0d0d0"></path><path d="M384 180L288 270L384 270Z" fill="#c8c8c8" stroke="#c8c8c8"></path><path d="M1536 360L1536 270L1440 270Z" fill="#b6b6b6" stroke="#b6b6b6"></path><path d="M1440 180L1440 90L1344 90Z" fill="#dbdbdb" stroke="#dbdbdb"></path><path d="M288 630L288 720L384 720Z" fill="#b6b6b6" stroke="#b6b6b6"></path><path d="M384 810L384 900L480 900Z" fill="#bdbdbd" stroke="#bdbdbd"></path><path d="M480 0L384 90L480 90Z" fill="#c1c1c1" stroke="#c1c1c1"></path><path d="M288 810L384 900L384 810Z" fill="#bdbdbd" stroke="#bdbdbd"></path><path d="M1344 990L1440 900L1344 900Z" fill="#d0d0d0" stroke="#d0d0d0"></path><path d="M1536 180L1440 90L1440 180Z" fill="#d0d0d0" stroke="#d0d0d0"></path><path d="M480 990L576 1080L576 990Z" fill="#dbdbdb" stroke="#dbdbdb"></path><path d="M1152 1080L1248 1080L1248 990Z" fill="#d7d7d7" stroke="#d7d7d7"></path><path d="M1536 270L1536 180L1440 180Z" fill="#bdbdbd" stroke="#bdbdbd"></path><path d="M384 90L288 180L384 180Z" fill="#b6b6b6" stroke="#b6b6b6"></path><path d="M1440 900L1536 810L1440 810Z" fill="#c4c4c4" stroke="#c4c4c4"></path><path d="M288 720L288 810L384 810Z" fill="#bdbdbd" stroke="#bdbdbd"></path><path d="M288 540L192 540L288 630Z" fill="#c4c4c4" stroke="#c4c4c4"></path><path d="M288 630L192 630L288 720Z" fill="#d0d0d0" stroke="#d0d0d0"></path><path d="M288 720L192 720L288 810Z" fill="#c8c8c8" stroke="#c8c8c8"></path><path d="M288 450L192 540L288 540Z" fill="#d0d0d0" stroke="#d0d0d0"></path><path d="M192 450L192 540L288 450Z" fill="#c1c1c1" stroke="#c1c1c1"></path><path d="M192 450L288 450L288 360Z" fill="#d7d7d7" stroke="#d7d7d7"></path><path d="M192 450L288 360L192 360Z" fill="#dbdbdb" stroke="#dbdbdb"></path><path d="M192 360L288 360L288 270Z" fill="#d0d0d0" stroke="#d0d0d0"></path><path d="M1536 540L1632 450L1536 450Z" fill="#b6b6b6" stroke="#b6b6b6"></path><path d="M1536 450L1632 450L1536 360Z" fill="#cccccc" stroke="#cccccc"></path><path d="M1536 360L1632 360L1536 270Z" fill="#d3d3d3" stroke="#d3d3d3"></path><path d="M1536 270L1632 270L1536 180Z" fill="#d0d0d0" stroke="#d0d0d0"></path><path d="M1632 540L1632 450L1536 540Z" fill="#d7d7d7" stroke="#d7d7d7"></path><path d="M1632 540L1536 540L1536 630Z" fill="#dbdbdb" stroke="#dbdbdb"></path><path d="M1632 540L1536 630L1632 630Z" fill="#d3d3d3" stroke="#d3d3d3"></path><path d="M1632 630L1536 630L1536 720Z" fill="#c4c4c4" stroke="#c4c4c4"></path><path d="M1344 990L1440 990L1440 900Z" fill="#bababa" stroke="#bababa"></path><path d="M1440 900L1536 900L1536 810Z" fill="#b6b6b6" stroke="#b6b6b6"></path><path d="M1344 1080L1440 990L1344 990Z" fill="#b6b6b6" stroke="#b6b6b6"></path><path d="M1536 90L1440 0L1440 90Z" fill="#bdbdbd" stroke="#bdbdbd"></path><path d="M1440 90L1440 0L1344 0Z" fill="#d0d0d0" stroke="#d0d0d0"></path><path d="M384 900L384 990L480 990Z" fill="#d0d0d0" stroke="#d0d0d0"></path><path d="M480 990L480 1080L576 1080Z" fill="#bababa" stroke="#bababa"></path><path d="M288 900L384 990L384 900Z" fill="#cccccc" stroke="#cccccc"></path><path d="M480 0L384 0L384 90Z" fill="#bdbdbd" stroke="#bdbdbd"></path><path d="M384 90L288 90L288 180Z" fill="#c8c8c8" stroke="#c8c8c8"></path><path d="M384 990L480 1080L480 990Z" fill="#bababa" stroke="#bababa"></path><path d="M1248 1080L1344 1080L1344 990Z" fill="#dbdbdb" stroke="#dbdbdb"></path><path d="M1632 720L1632 630L1536 720Z" fill="#bababa" stroke="#bababa"></path><path d="M1632 450L1632 360L1536 360Z" fill="#c8c8c8" stroke="#c8c8c8"></path><path d="M192 540L192 630L288 630Z" fill="#bdbdbd" stroke="#bdbdbd"></path><path d="M192 270L192 360L288 270Z" fill="#bababa" stroke="#bababa"></path><path d="M1536 180L1536 90L1440 90Z" fill="#c8c8c8" stroke="#c8c8c8"></path><path d="M1632 180L1536 90L1536 180Z" fill="#d7d7d7" stroke="#d7d7d7"></path><path d="M192 810L288 900L288 810Z" fill="#d0d0d0" stroke="#d0d0d0"></path><path d="M288 810L288 900L384 900Z" fill="#bdbdbd" stroke="#bdbdbd"></path><path d="M1440 990L1536 900L1440 900Z" fill="#bdbdbd" stroke="#bdbdbd"></path><path d="M1536 810L1632 720L1536 720Z" fill="#d7d7d7" stroke="#d7d7d7"></path><path d="M384 0L288 90L384 90Z" fill="#c8c8c8" stroke="#c8c8c8"></path><path d="M288 180L192 270L288 270Z" fill="#bababa" stroke="#bababa"></path><path d="M1632 360L1632 270L1536 270Z" fill="#d0d0d0" stroke="#d0d0d0"></path><path d="M192 630L192 720L288 720Z" fill="#d7d7d7" stroke="#d7d7d7"></path><path d="M192 180L192 270L288 180Z" fill="#dbdbdb" stroke="#dbdbdb"></path><path d="M1632 810L1632 720L1536 810Z" fill="#d0d0d0" stroke="#d0d0d0"></path><path d="M288 90L192 180L288 180Z" fill="#cccccc" stroke="#cccccc"></path><path d="M192 720L192 810L288 810Z" fill="#c1c1c1" stroke="#c1c1c1"></path><path d="M1536 900L1632 810L1536 810Z" fill="#bababa" stroke="#bababa"></path><path d="M1632 270L1632 180L1536 180Z" fill="#d3d3d3" stroke="#d3d3d3"></path><path d="M1440 990L1536 990L1536 900Z" fill="#c8c8c8" stroke="#c8c8c8"></path><path d="M1536 900L1632 900L1632 810Z" fill="#d0d0d0" stroke="#d0d0d0"></path><path d="M1344 1080L1440 1080L1440 990Z" fill="#bdbdbd" stroke="#bdbdbd"></path><path d="M288 990L384 1080L384 990Z" fill="#c1c1c1" stroke="#c1c1c1"></path><path d="M384 990L384 1080L480 1080Z" fill="#c4c4c4" stroke="#c4c4c4"></path><path d="M288 990L384 990L288 900Z" fill="#b6b6b6" stroke="#b6b6b6"></path><path d="M384 0L288 0L288 90Z" fill="#b6b6b6" stroke="#b6b6b6"></path><path d="M288 90L192 90L192 180Z" fill="#c4c4c4" stroke="#c4c4c4"></path><path d="M1440 1080L1536 990L1440 990Z" fill="#d7d7d7" stroke="#d7d7d7"></path><path d="M192 900L288 990L288 900Z" fill="#bababa" stroke="#bababa"></path><path d="M1632 90L1536 0L1536 90Z" fill="#d0d0d0" stroke="#d0d0d0"></path><path d="M1536 90L1536 0L1440 0Z" fill="#bababa" stroke="#bababa"></path><path d="M1632 540L1728 450L1632 450Z" fill="#bababa" stroke="#bababa"></path><path d="M1632 450L1728 450L1632 360Z" fill="#d0d0d0" stroke="#d0d0d0"></path><path d="M1632 360L1728 360L1632 270Z" fill="#bababa" stroke="#bababa"></path><path d="M1632 270L1728 270L1632 180Z" fill="#d7d7d7" stroke="#d7d7d7"></path><path d="M1728 540L1728 450L1632 540Z" fill="#bdbdbd" stroke="#bdbdbd"></path><path d="M1728 540L1632 540L1632 630Z" fill="#c4c4c4" stroke="#c4c4c4"></path><path d="M1728 540L1632 630L1728 630Z" fill="#c1c1c1" stroke="#c1c1c1"></path><path d="M96 360L96 450L192 360Z" fill="#bababa" stroke="#bababa"></path><path d="M192 360L96 450L192 450Z" fill="#c8c8c8" stroke="#c8c8c8"></path><path d="M192 450L96 450L192 540Z" fill="#dbdbdb" stroke="#dbdbdb"></path><path d="M192 540L96 540L192 630Z" fill="#bdbdbd" stroke="#bdbdbd"></path><path d="M192 630L96 630L192 720Z" fill="#d0d0d0" stroke="#d0d0d0"></path><path d="M192 720L96 720L192 810Z" fill="#c1c1c1" stroke="#c1c1c1"></path><path d="M96 360L192 360L192 270Z" fill="#bababa" stroke="#bababa"></path><path d="M96 450L96 540L192 540Z" fill="#d3d3d3" stroke="#d3d3d3"></path><path d="M1728 630L1632 630L1632 720Z" fill="#c8c8c8" stroke="#c8c8c8"></path><path d="M1632 180L1632 90L1536 90Z" fill="#d3d3d3" stroke="#d3d3d3"></path><path d="M1728 180L1632 90L1632 180Z" fill="#bababa" stroke="#bababa"></path><path d="M1536 990L1632 900L1536 900Z" fill="#d0d0d0" stroke="#d0d0d0"></path><path d="M1728 720L1728 630L1632 720Z" fill="#b6b6b6" stroke="#b6b6b6"></path><path d="M288 0L192 90L288 90Z" fill="#cccccc" stroke="#cccccc"></path><path d="M96 270L96 360L192 270Z" fill="#d0d0d0" stroke="#d0d0d0"></path><path d="M96 810L192 900L192 810Z" fill="#c1c1c1" stroke="#c1c1c1"></path><path d="M192 810L192 900L288 900Z" fill="#d0d0d0" stroke="#d0d0d0"></path><path d="M96 540L96 630L192 630Z" fill="#d3d3d3" stroke="#d3d3d3"></path><path d="M96 270L192 270L192 180Z" fill="#dbdbdb" stroke="#dbdbdb"></path><path d="M1728 450L1728 360L1632 360Z" fill="#d3d3d3" stroke="#d3d3d3"></path><path d="M1728 720L1632 720L1632 810Z" fill="#bdbdbd" stroke="#bdbdbd"></path><path d="M1728 810L1728 720L1632 810Z" fill="#c1c1c1" stroke="#c1c1c1"></path><path d="M1728 360L1728 270L1632 270Z" fill="#d7d7d7" stroke="#d7d7d7"></path><path d="M96 180L96 270L192 180Z" fill="#dbdbdb" stroke="#dbdbdb"></path><path d="M96 630L96 720L192 720Z" fill="#d0d0d0" stroke="#d0d0d0"></path><path d="M1536 990L1632 990L1632 900Z" fill="#d3d3d3" stroke="#d3d3d3"></path><path d="M1440 1080L1536 1080L1536 990Z" fill="#d0d0d0" stroke="#d0d0d0"></path><path d="M288 990L288 1080L384 1080Z" fill="#c1c1c1" stroke="#c1c1c1"></path><path d="M192 990L288 1080L288 990Z" fill="#cccccc" stroke="#cccccc"></path><path d="M96 900L192 990L192 900Z" fill="#d3d3d3" stroke="#d3d3d3"></path><path d="M192 900L192 990L288 990Z" fill="#bababa" stroke="#bababa"></path><path d="M1536 1080L1632 990L1536 990Z" fill="#b6b6b6" stroke="#b6b6b6"></path><path d="M1632 900L1728 810L1632 810Z" fill="#bababa" stroke="#bababa"></path><path d="M1728 90L1632 0L1632 90Z" fill="#c1c1c1" stroke="#c1c1c1"></path><path d="M1632 90L1632 0L1536 0Z" fill="#b6b6b6" stroke="#b6b6b6"></path><path d="M288 0L192 0L192 90Z" fill="#bdbdbd" stroke="#bdbdbd"></path><path d="M192 90L96 180L192 180Z" fill="#d3d3d3" stroke="#d3d3d3"></path><path d="M96 720L96 810L192 810Z" fill="#c4c4c4" stroke="#c4c4c4"></path><path d="M1728 270L1728 180L1632 180Z" fill="#bdbdbd" stroke="#bdbdbd"></path><path d="M96 90L96 180L192 90Z" fill="#bdbdbd" stroke="#bdbdbd"></path><path d="M1728 900L1728 810L1632 900Z" fill="#bdbdbd" stroke="#bdbdbd"></path><path d="M1632 990L1728 900L1632 900Z" fill="#c8c8c8" stroke="#c8c8c8"></path><path d="M192 0L96 90L192 90Z" fill="#cccccc" stroke="#cccccc"></path><path d="M96 810L96 900L192 900Z" fill="#c1c1c1" stroke="#c1c1c1"></path><path d="M1728 180L1728 90L1632 90Z" fill="#d0d0d0" stroke="#d0d0d0"></path><path d="M0 360L96 360L96 270Z" fill="#dbdbdb" stroke="#dbdbdb"></path><path d="M0 360L0 450L96 360Z" fill="#dbdbdb" stroke="#dbdbdb"></path><path d="M96 360L0 450L96 450Z" fill="#c4c4c4" stroke="#c4c4c4"></path><path d="M96 450L0 450L96 540Z" fill="#c1c1c1" stroke="#c1c1c1"></path><path d="M96 540L0 540L96 630Z" fill="#c4c4c4" stroke="#c4c4c4"></path><path d="M96 630L0 630L96 720Z" fill="#dbdbdb" stroke="#dbdbdb"></path><path d="M96 720L0 720L96 810Z" fill="#bababa" stroke="#bababa"></path><path d="M96 810L0 810L96 900Z" fill="#dbdbdb" stroke="#dbdbdb"></path><path d="M0 360L96 270L0 270Z" fill="#cccccc" stroke="#cccccc"></path><path d="M1728 540L1824 540L1728 450Z" fill="#b6b6b6" stroke="#b6b6b6"></path><path d="M1728 450L1824 450L1728 360Z" fill="#c1c1c1" stroke="#c1c1c1"></path><path d="M1728 360L1824 360L1728 270Z" fill="#d0d0d0" stroke="#d0d0d0"></path><path d="M1728 270L1824 270L1728 180Z" fill="#bdbdbd" stroke="#bdbdbd"></path><path d="M1728 180L1824 180L1728 90Z" fill="#bdbdbd" stroke="#bdbdbd"></path><path d="M1728 630L1824 540L1728 540Z" fill="#c4c4c4" stroke="#c4c4c4"></path><path d="M1824 630L1824 540L1728 630Z" fill="#cccccc" stroke="#cccccc"></path><path d="M1824 630L1728 630L1728 720Z" fill="#b6b6b6" stroke="#b6b6b6"></path><path d="M1824 630L1728 720L1824 720Z" fill="#bababa" stroke="#bababa"></path><path d="M0 450L0 540L96 540Z" fill="#bdbdbd" stroke="#bdbdbd"></path><path d="M1824 540L1824 450L1728 450Z" fill="#bdbdbd" stroke="#bdbdbd"></path><path d="M1824 450L1824 360L1728 360Z" fill="#dbdbdb" stroke="#dbdbdb"></path><path d="M0 270L96 270L96 180Z" fill="#d3d3d3" stroke="#d3d3d3"></path><path d="M1824 720L1728 720L1728 810Z" fill="#c4c4c4" stroke="#c4c4c4"></path><path d="M0 540L0 630L96 630Z" fill="#c8c8c8" stroke="#c8c8c8"></path><path d="M96 990L192 1080L192 990Z" fill="#d0d0d0" stroke="#d0d0d0"></path><path d="M192 990L192 1080L288 1080Z" fill="#c8c8c8" stroke="#c8c8c8"></path><path d="M1536 1080L1632 1080L1632 990Z" fill="#d0d0d0" stroke="#d0d0d0"></path><path d="M1632 990L1728 990L1728 900Z" fill="#dbdbdb" stroke="#dbdbdb"></path><path d="M0 630L0 720L96 720Z" fill="#c4c4c4" stroke="#c4c4c4"></path><path d="M1824 360L1824 270L1728 270Z" fill="#c8c8c8" stroke="#c8c8c8"></path><path d="M1824 810L1824 720L1728 810Z" fill="#c1c1c1" stroke="#c1c1c1"></path><path d="M0 180L0 270L96 180Z" fill="#c4c4c4" stroke="#c4c4c4"></path><path d="M1632 1080L1728 990L1632 990Z" fill="#bdbdbd" stroke="#bdbdbd"></path><path d="M1728 900L1824 810L1728 810Z" fill="#d0d0d0" stroke="#d0d0d0"></path><path d="M192 0L96 0L96 90Z" fill="#d7d7d7" stroke="#d7d7d7"></path><path d="M96 90L0 180L96 180Z" fill="#bababa" stroke="#bababa"></path><path d="M1728 90L1728 0L1632 0Z" fill="#cccccc" stroke="#cccccc"></path><path d="M1824 90L1728 0L1728 90Z" fill="#b6b6b6" stroke="#b6b6b6"></path><path d="M0 900L96 990L96 900Z" fill="#d0d0d0" stroke="#d0d0d0"></path><path d="M96 900L96 990L192 990Z" fill="#bdbdbd" stroke="#bdbdbd"></path><path d="M0 720L0 810L96 810Z" fill="#c1c1c1" stroke="#c1c1c1"></path><path d="M1824 900L1824 810L1728 900Z" fill="#bdbdbd" stroke="#bdbdbd"></path><path d="M0 90L0 180L96 90Z" fill="#cccccc" stroke="#cccccc"></path><path d="M1824 270L1824 180L1728 180Z" fill="#cccccc" stroke="#cccccc"></path><path d="M1728 990L1824 900L1728 900Z" fill="#d7d7d7" stroke="#d7d7d7"></path><path d="M1824 180L1824 90L1728 90Z" fill="#b6b6b6" stroke="#b6b6b6"></path><path d="M0 810L0 900L96 900Z" fill="#c1c1c1" stroke="#c1c1c1"></path><path d="M96 0L0 90L96 90Z" fill="#d7d7d7" stroke="#d7d7d7"></path><path d="M1632 1080L1728 1080L1728 990Z" fill="#d7d7d7" stroke="#d7d7d7"></path><path d="M1728 990L1824 990L1824 900Z" fill="#d3d3d3" stroke="#d3d3d3"></path><path d="M0 990L96 1080L96 990Z" fill="#d0d0d0" stroke="#d0d0d0"></path><path d="M96 990L96 1080L192 1080Z" fill="#dbdbdb" stroke="#dbdbdb"></path><path d="M1824 540L1920 540L1824 450Z" fill="#c1c1c1" stroke="#c1c1c1"></path><path d="M1824 450L1920 450L1824 360Z" fill="#c1c1c1" stroke="#c1c1c1"></path><path d="M1824 360L1920 360L1824 270Z" fill="#cccccc" stroke="#cccccc"></path><path d="M1824 270L1920 270L1824 180Z" fill="#d7d7d7" stroke="#d7d7d7"></path><path d="M1824 180L1920 180L1824 90Z" fill="#cccccc" stroke="#cccccc"></path><path d="M1824 630L1920 540L1824 540Z" fill="#bdbdbd" stroke="#bdbdbd"></path><path d="M1920 630L1920 540L1824 630Z" fill="#bdbdbd" stroke="#bdbdbd"></path><path d="M1920 630L1824 630L1824 720Z" fill="#b6b6b6" stroke="#b6b6b6"></path><path d="M1920 630L1824 720L1920 720Z" fill="#c1c1c1" stroke="#c1c1c1"></path><path d="M1920 540L1920 450L1824 450Z" fill="#bababa" stroke="#bababa"></path><path d="M1920 450L1920 360L1824 360Z" fill="#c1c1c1" stroke="#c1c1c1"></path><path d="M1920 720L1824 720L1824 810Z" fill="#d0d0d0" stroke="#d0d0d0"></path><path d="M1920 360L1920 270L1824 270Z" fill="#c8c8c8" stroke="#c8c8c8"></path><path d="M1920 810L1920 720L1824 810Z" fill="#d3d3d3" stroke="#d3d3d3"></path><path d="M96 0L0 0L0 90Z" fill="#cccccc" stroke="#cccccc"></path><path d="M1728 1080L1824 990L1728 990Z" fill="#b6b6b6" stroke="#b6b6b6"></path><path d="M1824 900L1920 810L1824 810Z" fill="#bababa" stroke="#bababa"></path><path d="M0 900L0 990L96 990Z" fill="#b6b6b6" stroke="#b6b6b6"></path><path d="M1920 90L1824 0L1824 90Z" fill="#d3d3d3" stroke="#d3d3d3"></path><path d="M1824 90L1824 0L1728 0Z" fill="#cccccc" stroke="#cccccc"></path><path d="M1920 900L1920 810L1824 900Z" fill="#bababa" stroke="#bababa"></path><path d="M1920 270L1920 180L1824 180Z" fill="#bdbdbd" stroke="#bdbdbd"></path><path d="M0 990L0 1080L96 1080Z" fill="#c1c1c1" stroke="#c1c1c1"></path><path d="M1728 1080L1824 1080L1824 990Z" fill="#bdbdbd" stroke="#bdbdbd"></path><path d="M1824 990L1920 900L1824 900Z" fill="#c1c1c1" stroke="#c1c1c1"></path><path d="M1920 990L1920 900L1824 990Z" fill="#c8c8c8" stroke="#c8c8c8"></path><path d="M1920 180L1920 90L1824 90Z" fill="#c8c8c8" stroke="#c8c8c8"></path><path d="M1824 1080L1920 990L1824 990Z" fill="#dbdbdb" stroke="#dbdbdb"></path><path d="M1920 90L1920 0L1824 0Z" fill="#d3d3d3" stroke="#d3d3d3"></path><path d="M1824 1080L1920 1080L1920 990Z" fill="#b6b6b6" stroke="#b6b6b6"></path></g></svg>